<svg width="642" height="170" viewBox="0 0 642 170" fill="none" xmlns="http://www.w3.org/2000/svg"><g clip-path="url(#clip0)"><path d="M98.693 36.314c-7.236 0-12.978 1.181-17.25 3.586-5.203 2.922-9.038 7.379-11.381 12.395a28.558 28.558 0 00-1.741 4.83h56.763c2.716.02 3.504-.374 4.81-2.55l10.553-18.261H98.693z" fill="url(#paint0_linear)"/><path d="M41.12 72.462c3.628 6.28 7.505 10.654 11.734 13.141 5.142 3.047 10.905 4.125 16.44 3.669a27.84 27.84 0 005.06-.912C69.128 79.323 45.97 39.216 45.97 39.216c-1.347-2.363-2.073-2.84-4.602-2.882H20.264c1.265 2.198 18.783 32.563 20.856 36.128z" fill="url(#paint1_linear)"/><path d="M101.222 104.237c3.628-6.28 5.473-11.835 5.514-16.727.063-5.97-1.865-11.504-5.037-16.064a28.565 28.565 0 00-3.317-3.938 67520.695 67520.695 0 01-28.403 49.186c-1.368 2.342-1.41 3.213-.207 5.431l10.552 18.26c1.306-2.217 18.825-32.562 20.898-36.148z" fill="url(#paint2_linear)"/><path d="M192.421 55.072C191.488 53.31 190.97 53 189.187 53h-15.093l12.294 21.122c5.1 9.057 14.678 14.57 23.635 11.234l-17.602-30.283zm12.792 46.948v23.836h14.989v-20.188l30.932-52.669H233.74l-28.527 49.021zm104.841-38.719v29.66c0 13.536-5.307 20.604-16.026 20.604-10.718 0-16.026-7.068-16.026-20.603V53h-14.885v39.962c0 21.639 12.066 35.07 30.911 35.07s31.015-13.535 30.911-35.07l-.103-41.31c-7.795 1.037-14.782 4.063-14.782 11.65zm83.404-1.555L380.335 84.65l-13.434-23.733C363.874 55.818 360.246 53 353.57 53h-9.371v72.857h14.16V72.773l16.959 31.319h10.096l16.959-31.319v53.083h14.16V53h-7.816c-7.567 0-12.025 3.13-15.259 8.746zm67.254 22.386l-5.722 11.856h17.913c9.889 0 14.781-6.032 16.336-13.639h-26.018c-1.472 0-1.887.207-2.509 1.783z" fill="#000"/><path d="M436.871 125.856h54.338v-13.742H451.03V66.638h40.179V53h-54.338v72.857zm122.338-64.11L546.086 84.65l-13.434-23.733C529.625 55.818 525.997 53 519.321 53h-9.371v72.857h14.16V72.773l16.959 31.319h10.096l16.959-31.319v53.083h14.16V53h-7.816c-7.567 0-12.045 3.13-15.259 8.746zm42.376.934v63.176h14.989V51.341c-5.722.208-14.989 2.591-14.989 11.338z" fill="#000"/></g><defs><linearGradient id="paint0_linear" x1="139.72" y1="46.72" x2="69.361" y2="46.72" gradientUnits="userSpaceOnUse"><stop stop-color="#008CE6"/><stop offset=".085" stop-color="#0D99E4"/><stop offset=".356" stop-color="#33BFDE"/><stop offset=".608" stop-color="#4EDADA"/><stop offset=".83" stop-color="#5EEAD8"/><stop offset="1" stop-color="#64F0D7"/></linearGradient><linearGradient id="paint1_linear" x1="29.547" y1="31.779" x2="64.715" y2="92.703" gradientUnits="userSpaceOnUse"><stop stop-color="#008CE6"/><stop offset=".085" stop-color="#0D99E4"/><stop offset=".356" stop-color="#33BFDE"/><stop offset=".608" stop-color="#4EDADA"/><stop offset=".83" stop-color="#5EEAD8"/><stop offset="1" stop-color="#64F0D7"/></linearGradient><linearGradient id="paint2_linear" x1="71.757" y1="134.593" x2="106.924" y2="73.669" gradientUnits="userSpaceOnUse"><stop stop-color="#008CE6"/><stop offset=".085" stop-color="#0D99E4"/><stop offset=".356" stop-color="#33BFDE"/><stop offset=".608" stop-color="#4EDADA"/><stop offset=".83" stop-color="#5EEAD8"/><stop offset="1" stop-color="#64F0D7"/></linearGradient><clipPath id="clip0"><path fill="#fff" d="M0 0h642v170H0z"/></clipPath></defs></svg>